<svg width="100" height="99" viewBox="0 0 100 99" fill="none" xmlns="http://www.w3.org/2000/svg">
<rect width="99.2083" height="98.3692" rx="10.8041" fill="#3CA9DD"/>
<path d="M69.1562 57.8236V38.9224C69.1547 38.6494 69.0794 38.3816 68.938 38.146C68.7965 37.9104 68.594 37.7154 68.3506 37.5805L51.0616 28.0916C50.8286 27.9604 50.5644 27.8913 50.2954 27.8913C50.0264 27.8913 49.7621 27.9604 49.5291 28.0916L32.2401 37.5805C31.9968 37.7154 31.7942 37.9104 31.6528 38.146C31.5113 38.3816 31.4361 38.6494 31.4346 38.9224V57.8236C31.4361 58.0966 31.5113 58.3644 31.6528 58.6C31.7942 58.8356 31.9968 59.0306 32.2401 59.1654L49.5291 68.6544C49.7621 68.7856 50.0264 68.8547 50.2954 68.8547C50.5644 68.8547 50.8286 68.7856 51.0616 68.6544L68.3506 59.1654C68.594 59.0306 68.7965 58.8356 68.938 58.6C69.0794 58.3644 69.1547 58.0966 69.1562 57.8236V57.8236Z" stroke="#F0F3F4" stroke-width="3.5" stroke-linecap="round" stroke-linejoin="round"/>
<path opacity="0.9" d="M79.0357 62.9296V33.8164C79.0334 33.3959 78.9187 32.9834 78.7032 32.6205C78.4877 32.2576 78.179 31.9572 77.8082 31.7496L51.463 17.1339C51.108 16.9318 50.7053 16.8254 50.2954 16.8254C49.8855 16.8254 49.4828 16.9318 49.1279 17.1339L22.7826 31.7496C22.4118 31.9572 22.1031 32.2576 21.8876 32.6205C21.6721 32.9834 21.5575 33.3959 21.5552 33.8164V62.9296C21.5575 63.3501 21.6721 63.7626 21.8876 64.1255C22.1031 64.4883 22.4118 64.7887 22.7826 64.9964L49.1279 79.612C49.4828 79.8142 49.8855 79.9206 50.2954 79.9206C50.7053 79.9206 51.108 79.8142 51.463 79.612L77.8082 64.9964C78.179 64.7887 78.4877 64.4883 78.7032 64.1255C78.9187 63.7626 79.0334 63.3501 79.0357 62.9296V62.9296Z" stroke="#F0F3F4" stroke-width="3.5" stroke-linecap="round" stroke-linejoin="round"/>
<path d="M68.94 38.1364L50.4721 48.373L31.6506 38.1364" stroke="#F0F3F4" stroke-width="3" stroke-linecap="round" stroke-linejoin="round"/>
<path d="M50.4725 48.373L50.2954 68.8461" stroke="#F0F3F4" stroke-width="3" stroke-linecap="round" stroke-linejoin="round"/>
<path d="M59.9222 32.9415L50.2953 38.2323L40.6685 32.9415" stroke="#F0F3F4" stroke-width="3" stroke-linecap="round" stroke-linejoin="round"/>
<path d="M59.7258 63.9003V53.3379L64.441 50.75L69.1562 48.1621" stroke="#F0F3F4" stroke-width="3" stroke-linecap="round" stroke-linejoin="round"/>
<path d="M40.865 63.9003V53.3379L31.4346 48.1621" stroke="#F0F3F4" stroke-width="3" stroke-linecap="round" stroke-linejoin="round"/>
</svg>
